<?xml version="1.0" encoding="utf-8"?>
<!-- Generator: Adobe Illustrator 15.1.0, SVG Export Plug-In . SVG Version: 6.00 Build 0)  -->
<!DOCTYPE svg PUBLIC "-//W3C//DTD SVG 1.1//EN" "http://www.w3.org/Graphics/SVG/1.1/DTD/svg11.dtd">
<svg version="1.1" id="Layer_1" xmlns="http://www.w3.org/2000/svg" xmlns:xlink="http://www.w3.org/1999/xlink" x="0px" y="0px"
	 width="1128px" height="132px" viewBox="0 0 1128 132" enable-background="new 0 0 1128 132" xml:space="preserve">


<polyline fill="#F2F2F2" stroke="#000000" stroke-miterlimit="10" points="966.5,0 966.5,131.5 947.5,131.5 947.5,0 "/>
<polyline fill="#F2F2F2" stroke="#000000" stroke-miterlimit="10" points="684.5,0 684.5,131.5 664.5,131.5 664.5,0 "/>
<polyline fill="#F2F2F2" stroke="#000000" stroke-miterlimit="10" points="704.5,0 704.5,131.5 685.5,131.5 685.5,0 "/>
<polyline fill="#F2F2F2" stroke="#000000" stroke-miterlimit="10" points="423.5,0 423.5,131.5 403.5,131.5 403.5,0 "/>
<polyline fill="#F2F2F2" stroke="#000000" stroke-miterlimit="10" points="443.5,0 443.5,131.5 424.5,131.5 424.5,0 "/>
<polyline fill="#F2F2F2" stroke="#000000" stroke-miterlimit="10" points="160.5,0 160.5,131.5 141.5,131.5 141.5,0 "/>
<polyline fill="#F2F2F2" stroke="#000000" stroke-miterlimit="10" points="181.5,0 181.5,131.5 161.5,131.5 161.5,0 "/>
<polyline fill="#F2F2F2" stroke="#000000" stroke-miterlimit="10" points="1047.5,0 1047.5,131.5 1027.5,131.5 1027.5,0 "/>


<rect x="921" width="12" height="84"/>
<rect x="943" width="12" height="84"/>
<rect x="978" width="12" height="84"/>
<rect x="1003" width="12" height="84"/>
<rect x="1039" width="12" height="84"/>
<rect x="1062" width="12" height="84"/>
<rect x="1084" width="12" height="84"/>
</svg>
